<?xml version="1.0" encoding="utf-8"?>
<!-- Generator: Adobe Illustrator 25.4.1, SVG Export Plug-In . SVG Version: 6.00 Build 0)  -->
<svg version="1.1" id="Layer_1" xmlns="http://www.w3.org/2000/svg" xmlns:xlink="http://www.w3.org/1999/xlink" x="0px" y="0px"
	 viewBox="0 0 924.48 187.39" style="enable-background:new 0 0 924.48 187.39;" xml:space="preserve">
<style type="text/css">
	.st0{fill:#151023;}
	.st1{fill:url(#SVGID_1_);}
	.st2{fill:url(#SVGID_00000093143145683155938570000011553599581377098656_);}
	.st3{fill:url(#SVGID_00000163794840311516831650000008968355257647590570_);}
	.st4{fill:url(#SVGID_00000034080425393960509110000013020064312698242212_);}
	.st5{fill:url(#SVGID_00000134227486579502799900000015664856252136286904_);}
	.st6{fill:url(#SVGID_00000161591709883658422130000005547161863009751944_);}
	.st7{fill:url(#SVGID_00000154426680409632514940000012143076837261833871_);}
	.st8{fill:url(#SVGID_00000045612364407401045040000009568389327425098406_);}
	.st9{fill:url(#SVGID_00000153700568775006517830000006959604693463970478_);}
	.st10{fill:url(#SVGID_00000034798867722343497460000002679999379748018577_);}
	.st11{fill:url(#SVGID_00000051378023520546033110000011185574650378590358_);}
	.st12{fill:url(#SVGID_00000148639030286713249610000011019126612649650818_);}
	.st13{fill:url(#SVGID_00000067234764310640566280000008493746669652309387_);}
	.st14{fill:url(#SVGID_00000132048161828479122230000016519247511852029867_);}
	.st15{fill:url(#SVGID_00000014633601584751899420000007850964380590176956_);}
	.st16{fill:url(#SVGID_00000026874040535146336090000016451785214136074163_);}
	.st17{fill:url(#SVGID_00000165912705366053254800000001217952030749473929_);}
	.st18{fill:url(#SVGID_00000039827814550431765650000010252966165529306792_);}
	.st19{fill:url(#SVGID_00000171683222570096609400000005475636971050837657_);}
	.st20{fill:url(#SVGID_00000064351948131626612030000008134256293875497600_);}
	.st21{fill:url(#SVGID_00000176003177553668584760000005186643505863738035_);}
	.st22{fill:url(#SVGID_00000000906293821837054700000009650624655529044656_);}
</style>
<g>
	<path class="st0" d="M242.42,121.14c0.97-6.45-3.87-10.48-6.29-15.97c-4.03-2.1-6.93-7.1-11.93-7.58
		c-1.94-2.58-5.48-3.55-8.39-4.52c-1.45,0-3.55-1.13-5-2.1c-1.45-0.48-3.39-1.61-5-1.61c-2.42-0.48-3.87-1.94-6.45-2.58l-0.48-0.97
		c-3.39-0.97-5.32-3.55-7.9-5.97c-1.45-2.1-2.42-5-2.42-7.58c-0.32-2.9,1.61-5.48,3.23-7.9c0.48-0.48,0.97-0.97,1.45-1.45
		c1.45-1.45,3.55-2.9,5.97-3.39c4.03-0.97,6.93-0.48,10.97,0c2.42,0.64,5,1.61,7.42,3.71c1.94,1.45,4.03,3.87,5.97,6.45
		c1.45,1.45,1.94,3.55,2.9,5c2.42,3.06,2.9,9.03,7.42,8.06c4.52-0.97,2.58-6.94,2.58-10.48c0.48-0.48,0.48-1.45,0.97-2.42
		c1.61-5.97,1.13-11.94,0.16-17.9c0-0.97-0.97-2.58-2.42-0.97c-3.06,2.9-7.1,10.32-11.45,4.84h-0.97c-0.48-1.61-2.1-1.61-2.58-1.61
		c-3.87-1.45-7.42-2.58-11.45-3.06c-1.94,0-4.84,0-6.94-0.16c-6.45,0.97-12.42,4.36-17.42,8.39c0,0.48-0.64,1.45-0.64,1.94
		c-5,3.39-5,9.84-7.58,14.84c0.97,3.06,0,6.45,0.48,9.52c1.29,5.48,5.32,9.03,8.23,13.55c2.42,2.9,5.97,5,9.35,6.45
		c0.97,0,1.61,0.16,2.58,0.16c4.84,1.94,9.84,4.52,15.32,4.52c0.97,0,1.45,1.13,1.94,1.61c3.55,1.45,7.42,3.55,10,6.61H225
		c0.48,0.97,1.45,1.45,2.42,2.42c1.45,2.1,1.77,5,2.42,7.58c0.48,1.94-0.48,3.39-1.13,5.48c-0.48,0.97-0.97,2.42-1.45,3.39
		c-3.06,4.03-6.13,6.94-11.13,8.39c-3.39,0.97-6.45,1.45-9.84,0.81c-0.97-0.48-2.1-0.48-2.58-0.97c-3.87,0-6.94-2.58-9.84-5.16
		c-0.97-0.48-1.45-0.97-2.42-1.45c-1.61-1.45-1.94-4.03-3.55-5.48c-2.9-4.52-4.36-9.52-5.32-15c-2.9-3.06-4.35,1.94-5,3.87
		c0,0.97,0,2.1,0,3.06c-0.48,6.94-0.16,13.87-0.65,20.81c-0.65,0.97-1.61,2.58-1.61,3.55c0,1.45,0.48,3.39,2.42,4.03
		c1.45,0.48,2.58,0,3.55-0.48c0.97-1.45,1.94-2.42,3.55-2.9c5.97-0.48,11.45,2.1,16.77,4.03c1.61,0.64,3.55,0.64,5,0.16
		c4.03,0,8.06,0,11.45-1.45c5.48-1.93,10.97-3.39,15.48-7.26c2.58-2.42,4.68-5.48,6.61-8.39c0-0.48,0-1.45,0-1.94
		c0.65-1.61,1.61-2.58,1.61-4.03c0.48-2.9,2.1-5.97,1.61-8.87C243.39,122.11,242.42,121.62,242.42,121.14z"/>
	<path class="st0" d="M319.35,106.14c-0.97-1.94-1.45-4.03-2.42-5.97c-0.48-0.48-1.61-0.48-1.61-1.45c0-0.48,0-1.13,0-1.13
		c-1.94-1.93-3.39-4.35-5.81-5.48l-0.48-0.97c-0.48,0-1.13,0-1.61-0.48c-0.48-0.48-0.48-1.45-0.97-1.45c-0.97,0-1.45-0.64-2.42-0.64
		c-4.52-2.42-9.52-3.55-14.52-3.06c-5.81-1.94-9.84,2.42-15.32,3.39c-0.48,0.48-1.13,0.97-1.61,1.45c-0.48,0.48-0.97,0.48-1.45,0.48
		c-1.94,1.13-3.55,3.06-5.48,4.52c-2.1,1.94-3.06,4.03-4.52,5.97c-2.1,3.39-3.55,6.94-4.03,10.97c-1.13,4.84-1.13,9.84-0.16,14.84
		c0.97,4.03,1.94,8.06,3.39,11.94c0.48,0.48,0.97,1.61,1.94,2.1c0.48,0,0.48,0.97,0.48,1.45c0,0.48,1.13,0.48,1.61,0.97
		c0.48,0.48,0.48,0.97,0.48,1.61c1.45,0.48,1.45,1.93,2.42,2.42c0.97,0,1.94,0.48,2.42,0.97c2.58,2.58,5.48,4.03,9.03,4.68
		c3.87,0.97,8.39,1.45,12.42,0.97c2.9-0.48,6.45-0.97,9.52-1.45c3.39-0.97,5.97-2.9,8.87-4.84c3.06-2.42,5-5.48,7.58-8.39
		c0-0.48,0-0.97,0.48-1.45c0.97-0.48,1.45-1.61,2.1-2.58c0-0.48,0-1.45,0-2.42c0.48-1.45,1.45-3.06,1.94-4.52
		c0-2.42,0.64-5,1.61-6.93c-1.45-3.55-0.97-7.42-1.45-11.45C319.84,109.69,320.32,107.59,319.35,106.14z M307.74,131.95
		c0,0.48-1.13,0.97-1.13,1.45c-0.48,3.06-1.94,5.48-4.03,8.06c0,0.48,0,0.97-0.48,1.45c-1.45,0.48-2.9,1.94-4.52,2.42
		c-1.94,0.48-3.87,1.94-5.97,2.42c-1.94,0.48-3.39,0-5.48,0c-1.45-0.48-2.9-2.1-4.35-2.58c-7.58-1.45-10-9.03-12.9-15
		c0.48-4.03-0.48-7.42,0-10.97c0.16-1.45-0.32-2.9,0.16-4.52c0.48-2.42,1.94-3.87,1.94-6.45c0.48-1.45,2.1-2.42,2.1-3.39
		c0.48-1.93,1.45-3.55,2.42-5c2.58-2.42,6.13-3.87,9.52-5.32c1.61-0.48,3.06-0.97,4.52-0.48c4.52,1.45,10,2.58,11.93,7.58
		c0,0,0.48,0.48,0.97,0.48c0.48,0.48,0.48,1.45,1.45,1.94c2.58,2.58,3.55,5.97,3.87,9.52c0.65,0.48,1.13,0.97,1.13,1.45
		C309.68,120.98,309.68,126.46,307.74,131.95z"/>
	<path class="st0" d="M382.9,135.33c-0.97,0.97-1.45,1.94-1.94,2.9c-0.48,0.48-0.97,0.48-1.45,0.48c-2.1,3.06-4.52,5.48-8.06,6.45
		c-2.9,0.48-5.48-0.97-8.39-2.1l-0.48-0.97c-4.52-1.94-7.42-7.58-8.39-11.94c-0.48-2.1-2.58-3.55-1.94-5.97
		c0-0.64-1.13-1.61-0.97-2.1c0-1.94,0.48-3.39,0.48-5c0.48-7.42,2.1-14.84,6.13-21.29c1.94-2.42,5-3.06,7.9-3.39
		c4.03-0.48,6.94,0.97,9.52,4.03c0.48,0.48,0.48,1.45,0.97,1.94c3.87,3.55,4.84,8.06,5.81,13.06c0.48,1.45,2.58,0.97,2.58,0.48
		c2.58-7.9,2.1-16.45,1.13-24.35c0-0.48-0.97-1.61-1.94-1.13c-2.1,0.48-3.06,3.06-5,2.58c-4.03-1.13-7.42-3.06-11.45-2.58
		c-2.1,0-3.55-0.65-5.48-0.16c-4.03,1.45-8.06,2.42-11.45,5l-0.48,0.97c-3.06,0.97-4.03,3.39-5.16,5.97
		c-0.48,0.48-0.97,0.48-0.97,0.97c0,0.48,0,0.97,0,1.45c-2.42,1.45-1.94,4.52-4.03,6.45c0,0.48,0,1.45,0,1.94
		c-2.58,5.97-2.58,12.42-2.1,19.03c0.48,0.97,1.94,1.94,1.94,3.39c-0.48,5.97,2.9,11.45,7.9,15.48c0.48,0.48,0.48,1.13,0.48,1.61
		c2.9,1.94,5.97,4.52,9.35,5c5,0.48,10.48,0.48,15.48-0.48c4.03-0.32,6.45-3.39,9.03-6.77c1.94-2.1,3.06-4.03,4.52-6.45
		c1.94-2.1,1.45-5.48-0.48-7.1C384.51,131.78,383.54,133.88,382.9,135.33z"/>
	<path class="st0" d="M430.47,95.17c0.16-0.48,0.64-0.97,1.13-1.45c2.42-1.45,5.97-0.97,8.39-1.94c2.58-0.97,3.06-5,1.61-6.94
		c-1.94-1.61-5-0.65-7.42-0.65c-1.13,0.48-2.58,0.97-3.55,1.45c-1.94,0-3.55,0-5.48-0.48c-0.97,0-2.42,0-3.55,0
		c-5.97,0.48-11.45,0.48-17.42,0.32c-1.94,2.58,0.97,4.52,2.42,5.97c2.1,1.13,4.52,1.13,6.61,1.13c0.48,0,0.97,0.48,1.45,0.97
		c0.97,0.97,1.94,2.1,1.94,3.06c-0.16,16.93,1.29,33.39-2.42,50.64c-0.48,0.64-1.45,1.13-1.94,1.13c-2.9-0.16-5.97,0.32-8.55,2.42
		c-0.48,0.48-0.48,2.42,0,3.39c0.97,0.97,3.06,0.48,4.03,0.48c10.97,1.13,22.42-0.32,33.39-0.65c1.45-1.45,1.45-4.03,0.48-4.52
		c-3.87-2.58-10.97,0.48-11.93-4.52c-1.45-5-1.94-10-1.29-15.48c0.48-0.48,0.48-1.45,0.48-1.93c-0.97-1.61-0.48-3.55-0.48-5
		C430.47,113.07,428.54,104.69,430.47,95.17z"/>
	<path class="st0" d="M510.31,143.88c-1.45-0.97-2.42-3.55-2.9-5.48c0-1.45-0.48-2.42-0.97-3.55c0-0.48,0-0.97,0-1.45
		c-1.61-4.03-3.55-7.42-3.55-11.93c-0.48-1.94-2.42-3.06-2.9-5c0-0.48,0-1.45,0-1.94c-1.93-7.58-5.81-14.03-5.81-21.93
		c0-1.61-0.97-3.06-1.94-4.52c-0.48-0.48-2.42-0.48-2.9,0c-1.61,1.94-3.55,3.87-5.64,4.84c-1.45,0.97-1.94,1.94-3.39,3.06
		c-1.13,1.45-0.64,3.39-0.64,5.32c0,1.13-1.45,1.61-1.45,2.58c0,1.93-0.48,3.39-1.61,5c-1.94,4.36-5,8.39-5.48,13.87l-0.97,0.48
		c-1.13,1.94-1.13,5-3.06,6.45c0,0.48,0,0.97,0,1.45c-2.1,4.03-3.06,7.9-5.65,11.94c-2.42,3.39-6.45,2.9-9.35,4.84
		c-2.58,1.61-2.1,4.52-0.16,5.97c2.1,1.13,4.52,1.13,6.94,0.65c1.13-0.48,2.58-0.48,3.55-0.48c2.42,0.97,5.48,0,7.9,0
		c0.64,0,1.61-0.48,2.58-0.97c1.94,0,4.52,0,6.45-0.97c0.97,0,1.45-2.42,0.48-3.87c-0.48-0.48-1.45-1.13-1.94-1.13
		c-2.9,0-6.45-0.97-5.97-4.03c0-3.87,2.58-7.42,4.03-10.81c2.58-0.97,4.52-0.48,7.1-1.45c2.42,1.45,6.13,0,8.39,0.97
		c4.52,2.1,4.52,7.58,4.84,12.1c0,0.48-0.48,1.45-0.97,1.94c-1.94,1.45-5,0.97-5.97,3.39c0,1.45,0.97,3.06,1.45,3.06
		c1.93,0.97,4.52,1.45,6.45,0.97c0.97-0.48,1.45-0.48,2.58-0.48c0.97,0.48,1.94,0.48,2.9,0.48c4.52-0.81,8.55,0.16,12.9-0.32
		c0.64-1.45,3.55-2.9,1.61-5C515.31,146.46,512.73,145.49,510.31,143.88z M489.99,124.85c-2.42,2.42-6.45,1.45-10,0.97
		c-1.45-0.48-2.9-1.61-2.42-3.55c0.48-0.97,0.97-1.93,1.45-2.9c1.13-3.55,0.16-8.71,3.71-10.97c1.45-0.97,1.94,0.48,2.9,0.97
		c2.42,3.55,3.39,6.94,4.84,10.97C490.47,121.95,490.95,123.4,489.99,124.85z"/>
	<path class="st0" d="M587.72,134.2c-1.61,0.97-1.61,2.9-3.06,4.35c-2.42,2.58-4.03,5.97-6.45,8.39c-3.55,2.58-7.58,0.97-11.61,1.94
		c-0.48,0-0.48-0.48-0.97-0.48c-2.42,0-5,0.97-7.42,0c-3.06,1.45-9.52,1.45-10-2.1c-0.97-4.52-0.32-8.87,0.16-13.39
		c0.48-3.55,0.48-6.94-0.48-10.48c0-0.48,0.48-0.48,0.48-0.97c0.16-0.48,0.16-1.45,0.16-2.1c0.48-6.94,0-13.87,1.13-21.29
		c0.48-2.1,0.48-5,2.9-5.48c2.58-0.48,4.52,0,7.1-0.48c1.45-0.48,1.94-1.94,2.9-3.39c-1.45,0-0.48-2.1-1.45-2.1
		c-8.87,0-17.9-1.13-26.93,1.29c-0.97,0-2.42,0-3.39-0.48c-1.45,0-3.55,0.48-5,0.97c-1.45,0.97,0,3.06,1.45,3.55
		c3.06,0.48,5.64-0.32,7.9,1.45c2.58,2.1,3.55,6.13,1.45,9.03c0.48,5.97,1.45,11.94-0.16,18.39c0,0.48,0.48,0.97,0.48,1.45
		c-0.97,3.06,0,5.48-0.48,8.55c-0.97,3.39-0.48,7.42-0.64,10.97c0.48,1.45,0,3.39-0.97,5c-0.48,0.97-1.45,2.42-3.06,2.42
		c-1.94,0-4.35-0.48-6.45,0.48c-0.97,0.48-2.9,1.94-1.94,3.39c4.35,4.03,11.45,2.1,16.93,1.13c0.48,0,1.45,0.48,1.94,0.48
		c1.94,0,4.03-0.48,5.97,0.16c5.48,0.48,11.45-0.48,16.93,0c3.55,0,6.45,0.65,10-0.32c1.94-0.48,3.39-0.97,5.48-0.97
		c2.42,0,5.48,0,7.9,0c0.97,0,1.94-0.97,2.58-1.94c0.48-5.97,0-11.45-1.45-16.94C589.18,134.2,588.21,134.2,587.72,134.2z"/>
	<path class="st0" d="M710.94,56.46c0-1.13-0.48-3.06-1.94-3.55c-2.42-0.48-4.03,1.45-5.48,3.39c-0.97,0.97-3.06,1.45-4.52,0.97
		c-4.52-1.61-8.39-3.06-12.9-5.16c-0.97-0.48-2.42-0.97-3.39-0.97c-6.94-0.16-14.52-0.16-21.45,2.26c0,0-0.48,0.48-0.97,0.48
		c-0.48,0-1.13,0-1.61,0c-1.94,0.97-3.39,1.94-5.48,2.42c-2.42,0.48-4.03,2.42-6.45,3.87c-0.48,0.48-0.48,0.97-0.97,1.45
		c-0.64,0.48-1.13,0.48-1.61,0.48c0,0.48,0,0.97,0,0.97c-5.97,5-9.52,11.94-11.61,19.35l-0.97,0.48c-0.48,1.94-1.13,3.39-1.61,5.48
		c-0.97,3.87-1.13,7.42-1.61,10.97c-0.48,3.39,0,6.94,0.97,10.32c0.97,3.06,0.81,6.13,1.77,9.03c0,0.97-0.48,1.94,0,2.58
		c1.45,10.48,6.29,19.35,15.64,25c0.48,0.48,0.48,0.97,0.97,1.45c3.55,1.13,5.97,4.03,10,5.16c1.94,0.48,3.87,0.97,5.97,1.61
		c5.97,0.48,11.45,0.97,17.42-0.32c3.87-0.97,7.9-2.9,11.94-4.35c2.58-1.45,5.48-3.06,8.06-4.52c0.48,0,0.97,0.64,0.97,0.64
		c1.94,2.9,1.94,6.94,5.32,6.94c1.61,0,1.13-2.42,1.13-4.03c0.48-4.84,0-9.84-0.32-14.84c0-4.03,1.45-7.42,2.1-11.45
		c0-0.97-0.97-3.06-1.94-3.55c-2.58-0.97-4.52,0.48-5.48,2.42c-3.06,7.42-6.13,14.35-12.74,19.35c-2.42,1.45-5,2.9-7.42,3.39
		c-3.55,0-7.1,0.97-10-0.65c-3.55-1.94-7.42-0.48-10.48-2.58c-4.35-3.55-7.9-8.06-11.77-12.1c-0.48-0.48-0.48-1.45-0.48-1.94
		c-0.97-0.97-1.45-2.1-1.94-3.06c-1.45-5-1.45-10-2.9-15.48c-0.32-3.39,0.16-6.94,0.16-10.48c-0.48-1.45,0.48-2.9,0.64-4.35
		c0.97-5,2.58-9.52,3.06-14.52c1.94-0.97,2.1-2.9,3.55-4.36c0-0.48,0-0.97,0-1.45c0,0,0.48-0.48,0.97-0.48
		c1.13-1.61,1.13-3.06,2.1-4.03c0.97-0.48,1.94-0.97,2.9-1.45c2.1-1.45,3.06-3.87,5.65-4.84c0.48,0,0.97,0,1.45,0
		c1.94-1.61,4.52-1.77,6.94-1.93c8.06-0.48,15,2.1,21.93,7.1c0.97,0.65,2.42,1.61,2.42,3.55l0.97,0.48c0.97,2.1,2.9,3.55,4.35,5.65
		c2.1,2.42,1.45,5.97,3.39,8.39c0.48,0.48,1.13,1.13,1.61,1.61c0.48,0.48,1.94,0,2.42,0c1.45-3.06,1.61-6.45,0.16-9.52
		c0-0.48,0.48-0.97,0.48-1.45c0-1.94,0-4.52,0-6.45C709.97,65.33,711.43,60.82,710.94,56.46z"/>
	<path class="st0" d="M780.94,143.88c-1.45-0.97-2.42-3.55-2.9-5.48c0-1.45-0.48-2.42-0.97-3.55c0-0.48,0-0.97,0-1.45
		c-1.61-4.03-3.55-7.42-3.55-11.93c-0.48-1.94-2.42-3.06-2.9-5c0-0.48,0-1.45,0-1.94c-1.93-7.58-5.81-14.03-5.81-21.93
		c0-1.61-0.97-3.06-1.94-4.52c-0.48-0.48-2.42-0.48-2.9,0c-1.61,1.94-3.55,3.87-5.64,4.84c-1.45,0.97-1.94,1.94-3.39,3.06
		c-1.13,1.45-0.64,3.39-0.64,5.32c0,1.13-1.45,1.61-1.45,2.58c0,1.93-0.48,3.39-1.61,5c-1.94,4.36-5,8.39-5.48,13.87l-0.97,0.48
		c-1.13,1.94-1.13,5-3.06,6.45c0,0.48,0,0.97,0,1.45c-2.1,4.03-3.06,7.9-5.65,11.94c-2.42,3.39-6.45,2.9-9.35,4.84
		c-2.58,1.61-2.1,4.52-0.16,5.97c2.1,1.13,4.52,1.13,6.94,0.65c1.13-0.48,2.58-0.48,3.55-0.48c2.42,0.97,5.48,0,7.9,0
		c0.64,0,1.61-0.48,2.58-0.97c1.94,0,4.52,0,6.45-0.97c0.97,0,1.45-2.42,0.48-3.87c-0.48-0.48-1.45-1.13-1.94-1.13
		c-2.9,0-6.45-0.97-5.97-4.03c0-3.87,2.58-7.42,4.03-10.81c2.58-0.97,4.52-0.48,7.1-1.45c2.42,1.45,6.13,0,8.39,0.97
		c4.52,2.1,4.52,7.58,4.84,12.1c0,0.48-0.48,1.45-0.97,1.94c-1.94,1.45-5,0.97-5.97,3.39c0,1.45,0.97,3.06,1.45,3.06
		c1.93,0.97,4.52,1.45,6.45,0.97c0.97-0.48,1.45-0.48,2.58-0.48c0.97,0.48,1.94,0.48,2.9,0.48c4.52-0.81,8.55,0.16,12.9-0.32
		c0.64-1.45,3.55-2.9,1.61-5C785.94,146.46,783.36,145.49,780.94,143.88z M760.62,124.85c-2.42,2.42-6.45,1.45-10,0.97
		c-1.45-0.48-2.9-1.61-2.42-3.55c0.48-0.97,0.97-1.93,1.45-2.9c1.13-3.55,0.16-8.71,3.71-10.97c1.45-0.97,1.94,0.48,2.9,0.97
		c2.42,3.55,3.39,6.94,4.84,10.97C761.1,121.95,761.58,123.4,760.62,124.85z"/>
	<path class="st0" d="M832.39,115.82c-2.1-0.48-4.03-1.45-5.48-2.58c-0.97-0.48-2.58-0.48-3.55-0.48c-1.94-0.97-3.87-1.45-6.45-1.45
		c-1.45-0.65-3.39-1.61-5-2.58c-0.48-0.48-2.42-0.97-2.42-2.58c0-1.94-1.94-3.39-0.97-5.48c0.97-1.45,0.48-2.9,1.61-4.35
		c3.39-5,10.48-5.48,15.32-2.9c0.48,0,2.1,0.97,2.58,1.94c1.45,2.58,1.94,5,3.39,7.58c0.48,0.97,0.97,3.87,2.9,2.9
		c2.58-2.9,2.58-6.93,2.58-10.81c0.48-0.65,0.48-1.61,1.13-2.58c0.48-1.45,0-2.9-0.48-4.52c-2.1-1.94-4.03,0.48-5.97,0.97
		c-2.58,0.48-4.52-0.97-7.1-1.45c-2.42-1.13-4.35-0.65-6.93-0.65c-1.94,0.48-3.39,0.48-5.48,1.45c-1.45,0.97-3.39,1.45-5,2.58
		c-0.48,0.97-0.97,1.45-1.93,1.45c0,0.48,0,0.97,0,0.97c-0.97,0.48-1.61,0.97-2.1,1.45c0,0.48-0.48,0.97-0.97,1.45
		c-1.94,3.06-2.58,6.94-2.58,10.97c0,3.55,0.97,7.42,3.39,10c3.06,2.58,5.97,4.52,9.03,6.45c3.87,2.1,7.9,2.1,12.42,3.23
		c1.45,0.48,2.9,1.94,3.87,3.39c0.48,0.48,0.97,0.48,1.45,0.48c1.13,2.58,3.06,4.52,2.58,7.1c-1.13,3.39-3.06,6.45-5.16,9.84
		c-3.87,1.94-8.39,2.9-12.42,0.97c-0.97-0.48-1.94,0.48-2.9,0c-0.48-0.48-0.48-1.45-1.13-2.1c-0.48,0-0.48-0.48-0.97-0.48
		c-0.48-0.48-0.48-0.97-0.48-1.45c-2.9-3.06-3.87-6.94-5.32-10.48c0-0.48-0.97-1.45-0.97-1.94c-1.45-0.65-3.55-0.16-3.55,1.94
		c0,5-0.48,10.48,1.45,15.32c5.81,6.13,14.84,6.13,22.74,6.29c1.13,0,2.1-1.13,3.06-1.61c5.97-0.97,10.48-4.84,13.55-9.84
		c2.42-5.48,3.55-11.94,1.61-17.9C839.81,121.78,836.74,117.91,832.39,115.82z"/>
	<path class="st0" d="M923.51,150.49c-0.48-0.48-0.48-0.97-0.48-1.45c-2.42-0.97-4.52-2.58-5.97-4.52
		c-1.45-2.42-4.35-4.52-6.45-6.45c-1.45-2.1-2.9-4.03-4.36-6.13c-0.48,0-0.97,0-1.45-0.48c-2.1-3.39-4.03-6.45-7.42-8.55
		c-1.61-0.97-2.58-2.42-4.03-3.87c-1.45-2.1-3.39-5-1.45-7.58c1.45-0.97,2.58-1.94,4.03-2.9c0.97-0.97,1.94-1.45,2.58-3.06
		c0.48-0.48,0.97-0.48,1.45-0.48c3.55-3.87,7.42-5.81,11.94-8.39c0.48,0.16,1.61,0.16,2.1,0.16c1.45-0.48,2.9-2.1,5-2.1
		c1.94-0.48,3.39-2.42,3.39-4.36c0-0.48-0.97-0.97-1.45-1.61c-7.9-1.45-15.32,0-22.9-0.65c-0.97-0.48-2.42-0.48-3.39,0
		c-2.1,0.97-3.06,4.52-0.65,5.97c1.61,0.48,3.06,1.61,3.55,3.06c0,0.48-0.48,0.97-0.48,1.45c-4.03,5.97-7.58,10.48-13.06,13.87
		c-0.97,0.97-2.58,1.45-3.55,0.48c-0.48-0.48-0.97-0.97-0.97-1.45c0-5-0.97-9.52,0.65-14.52c0.97-2.42,2.9-3.87,5.48-4.84
		c1.45-1.13,1.45-3.06,0.48-4.03c-1.45-0.97-3.39-0.97-5-1.61c-7.42,0-15.32-0.48-22.9-0.65c-1.94,0-2.42,3.06-1.94,4.52
		c0.48,0.48,0.97,1.45,1.94,1.45c3.06,0.64,5.64,0.97,7.9,2.1c1.13,0.48,1.61,1.94,1.61,3.06c-0.16,4.84-1.61,9.84-0.65,14.84
		c0,3.55,0,7.42-0.64,10.97c0,1.45,0,3.55,0,5c0.97,6.45,0,12.42-1.13,18.39c-2.42,0.97-5,1.45-7.9,1.45
		c-1.61,0.48-3.06,1.45-3.55,2.9c0,1.61,0.48,3.55,1.93,4.03c2.58,0,4.52,0.48,6.94-0.48c2.1-0.48,4.03,0.65,5.97,0.65
		c1.61-0.48,3.55,0,5,0c3.55,0,7.42,0,10.97-0.48c0.97-0.48,2.1-1.45,2.1-1.45c1.94-3.87-3.55-3.06-5.97-5
		c-5-3.55-2.42-10.48-1.94-15.97c0-1.94,0-6.45,3.06-5.48c2.9,0.65,6.45,2.58,7.9,5.65l0.97,0.48c0.97,1.94,2.9,2.9,4.52,4.52
		c0.97,1.45,1.45,3.39,2.42,4.52c1.45,0.97,2.42,2.42,2.9,3.87c0,2.58-3.39,3.06-4.52,5.48c-0.48,1.45,0,3.06,0.97,3.06
		c9.03,2.1,17.42,0.65,25.97,0.16c0.48,0,0.97-0.48,1.45-0.97c0-0.48,0-1.45,0-2.1C924.48,150.98,924,150.49,923.51,150.49z"/>
</g>
<g>
	<linearGradient id="SVGID_1_" gradientUnits="userSpaceOnUse" x1="8.725208e-06" y1="93.6927" x2="135.0941" y2="93.6927">
		<stop  offset="0" style="stop-color:#E34E26"/>
		<stop  offset="1" style="stop-color:#F0662A"/>
	</linearGradient>
	<path class="st1" d="M125.13,75.65c-8.04-16.52-19.41-30.74-31.1-44.74C85.9,21.17,77.83,11.36,69.71,1.6
		C69.24,1.02,68.6,0.59,67.94,0c-0.13,0.09-0.26,0.17-0.4,0.24c-0.13-0.08-0.26-0.16-0.4-0.24c-0.66,0.59-1.29,1.02-1.77,1.6
		c-8.12,9.76-16.19,19.57-24.33,29.32C29.37,44.91,18,59.13,9.96,75.65c-8.65,17.76-12.72,36.23-7.91,55.89
		c2.83,11.58,8.51,21.65,16.77,30.23c0.74,0.77,2.06,0.99,3.19,1.39c0.88,5.33,1.92,10.64,3.14,15.91c0.91,3.95,2.45,5.43,6.46,6.02
		c6.93,1.03,13.92,1.57,20.9,1.92c17.14,0.86,34.22,0.3,51.23-2.23c3.47-0.51,5.59-2.34,6.52-5.55c1.6-5.47,2.99-10.97,4.18-16.5
		c0.72-0.23,1.4-0.49,1.85-0.96c8.26-8.58,13.94-18.65,16.77-30.23C137.85,111.88,133.78,93.41,125.13,75.65z M27.89,78.72
		c-0.38,1.96-0.62,3.95-0.91,5.92c-0.08,0.56-0.12,1.2-0.92,1.08c-0.96-0.15-0.43-0.85-0.35-1.31c0.86-5.31,1.88-10.59,3.13-15.82
		c0.77-3.24,2.01-4.23,5.34-4.36c0.78-0.03,1.57-0.03,2.32-0.18c1.13-0.22,1.49,0.07,1.3,1.27c-0.95,6.03-1.75,12.09-2.3,18.17
		c-0.12,1.28-0.45,2.01-1.98,1.87c-1.2-0.11-2.45,0.07-3.65,0.24c-1.42,0.2-1.88-0.24-1.62-1.69c0.47-2.56,0.8-5.15,1.17-7.73
		c0.09-0.6,0.08-1.2,0.12-1.81C28.09,75.54,28.18,77.21,27.89,78.72z M26,87.04c5.45-0.2,10.89-0.49,16.33-0.74
		c0.39-0.02,0.78-0.01,1.17-0.03c0.51-0.02,0.63-0.41,0.67-0.8c0.06-0.63-0.42-0.53-0.79-0.53c-1.17,0.02-2.35-0.03-3.5,0.12
		c-1.18,0.15-1.56-0.13-1.4-1.39c0.72-5.79,1.54-11.56,2.55-17.3c0.49-2.75,0.53-2.73,3.42-2.83c2.28-0.08,4.56-0.2,6.83-0.35
		c0.96-0.07,1.25,0.21,1.12,1.21c-0.24,1.82-0.29,3.66-0.51,5.48c-0.12,1,0.36,1.29,1.2,1.31c0.76,0.02,1.56,0.2,1.63-1.03
		c0.12-1.94,0.39-3.87,0.55-5.81c0.08-1,0.44-1.46,1.54-1.45c3.45,0.01,6.9-0.05,10.34-0.15c1.04-0.03,1.35,0.39,1.38,1.35
		c0.19,6.39,0.39,12.78,0.63,19.17c0.04,1-0.36,1.23-1.26,1.23c-4.34,0.01-8.68,0.02-13.01,0.12c-1.12,0.03-1.51-0.32-1.33-1.4
		c0.08-0.49,0.04-1,0.12-1.49c0.11-0.64,0.01-1.24-0.73-1.16c-0.67,0.08-1.63-0.27-1.91,0.85c-0.28,1.11,0.56,3.89,1.43,4.54
		c0.45,0.34,0.97,0.15,1.45,0.14c8.62-0.22,17.24-0.12,25.86-0.11c10.01,0.27,20.02,0.28,30.01,0.95c2.7,0.18,2.73,0.15,3.16,2.7
		c0.37,2.13,0.66,4.28,1.07,6.4c0.23,1.22-0.01,1.64-1.38,1.55c-12.77-0.84-25.56-1.04-38.35-1.14
		c-16.52-0.12-33.03,0.21-49.53,1.09c-2.08,0.11-2.08,0.11-1.79-1.92c0.31-2.14,0.69-4.28,0.83-6.44C23.9,87.67,24.5,87.1,26,87.04z
		 M71.4,73.4c-0.17,0-0.35,0-0.52,0c0-3.11,0.03-6.21-0.02-9.32c-0.02-0.97,0.18-1.4,1.26-1.37c3.66,0.12,7.33,0.18,10.99,0.21
		c0.97,0.01,1.38,0.34,1.47,1.32c0.54,6.19,1.09,12.37,1.7,18.56c0.13,1.37-0.09,1.94-1.69,1.87c-3.94-0.17-7.88-0.15-11.82-0.13
		c-1,0-1.39-0.29-1.37-1.32C71.43,79.95,71.4,76.67,71.4,73.4z M101.22,84.24c0.15,0.91-0.3,1.04-1.03,0.99
		c-1.72-0.12-3.44-0.21-5.15-0.32c0-0.03,0-0.06,0-0.1c-1.78,0-3.55-0.02-5.33,0.01c-0.81,0.01-1.13-0.28-1.2-1.14
		c-0.48-6.48-1-12.95-1.54-19.42c-0.07-0.79,0.14-1.12,0.98-1.05c3.04,0.24,6.09,0.46,9.14,0.63c0.75,0.04,0.89,0.44,0.99,1.04
		C99.1,71.33,100.15,77.79,101.22,84.24z M101.49,64.2c3,0.17,4.29,1.09,5.18,4c1.6,5.19,2.84,10.48,4.06,15.77
		c0.36,1.56-0.06,1.86-1.44,1.66c-0.38-0.06-0.78-0.01-1.57-0.01c-1.2-0.12-3.17,0.23-4.3-0.58c-1.08-0.78-0.65-2.88-0.89-4.4
		c-0.77-5.05-1.48-10.1-2.31-15.14C100.03,64.27,100.42,64.14,101.49,64.2z M114.45,132.32c-0.25,4.94-0.71,9.85-1.37,14.76
		c-0.13,0.96-0.4,1.32-1.41,1.33c-1.83,0.02-3.66,0.16-5.49,0.34c-1.09,0.11-1.43-0.13-1.33-1.33c0.83-10.7,0.98-21.42,0.79-32.16
		c-0.09-4.95-0.39-9.88-0.8-14.81c-0.11-1.36,0.33-1.53,1.43-1.38c0.77,0.11,1.55,0.14,2.17,0.19c1.66,0.02,3.45-0.34,4.55,0.49
		c1.09,0.82,0.63,2.69,0.78,4.1C114.79,113.32,114.94,122.81,114.45,132.32z M89.35,100.86c-0.12-2.77-0.18-2.26,2.1-2.23
		c3.44,0.04,6.89,0.23,10.33,0.28c0.98,0.01,1.15,0.4,1.22,1.28c0.71,8.14,1.04,16.3,0.97,25.27c0.15,6.49-0.3,13.76-0.72,21.02
		c-0.15,2.51-0.18,2.48-2.63,2.57c-3.28,0.12-6.55,0.24-9.82,0.44c-1.04,0.06-1.47-0.08-1.41-1.3
		C90.12,132.41,90.06,116.63,89.35,100.86z M71.72,124.11c0-8.06,0.02-16.12-0.03-24.19c-0.01-1.2,0.22-1.67,1.54-1.62
		c4.22,0.15,8.45,0.21,12.68,0.22c1.11,0,1.35,0.38,1.4,1.43c0.68,14.12,0.8,28.23,0.28,42.35c-0.08,2.06-0.23,4.11-0.29,6.16
		c-0.02,0.81-0.21,1.2-1.12,1.22c-4.39,0.07-8.78,0.15-13.17,0.33c-1.34,0.05-1.23-0.67-1.22-1.55c0.02-8.12,0.01-16.24,0.01-24.36
		C71.77,124.11,71.75,124.11,71.72,124.11z M56.42,118.6c-0.65,1.01-0.8,1.8-0.84,2.62c-0.44,9.12-0.54,18.23-0.15,27.35
		c0.04,0.86,0.1,1.55-1.12,1.46c-0.96-0.07-1.95,0.12-1.79-1.4c0.08-0.77-0.03-1.55-0.05-2.33c-0.01-0.49,0.15-1.03-0.75-0.59
		c-0.63,0.3-0.31-0.46-0.41-0.72c-0.18-0.5-0.36-1.02-0.96-0.98c-0.81,0.06-0.45,0.76-0.46,1.18c-0.04,0.94-0.1,1.91,0.06,2.83
		c0.31,1.76-0.47,2.03-2.01,1.91c-3.11-0.24-3.11-0.17-3.36-3.31c-0.23-2.97-0.47-5.95-0.74-8.92c-0.1-1.13-0.21-2.27-1.26-3.21
		c0,1.24-0.02,2.48,0,3.71c0.08,3.34,0.2,6.67,0.26,10.01c0.01,0.61,0.42,1.51-0.88,1.51c-1.09,0-1.05-0.67-1.12-1.42
		c-0.98-10.42-1.44-20.86-1.34-31.32c0.01-0.85,0.18-1.77-0.38-2.61c-0.69,0.68-0.85,1.49-0.91,2.32
		c-0.66,9.68-0.29,19.34,0.55,28.99c0.08,0.89,0.11,1.78,0.19,2.66c0.05,0.55,0.27,1.16-0.67,1.14c-0.69-0.02-1.06-0.15-1.15-1
		c-0.48-4.7-0.75-9.42-0.9-14.14c-0.35-11.4-0.21-22.8,0.59-34.18c0.08-1.14,0.54-1.43,1.51-1.44c1.39-0.02,2.8-0.23,4.16-0.05
		c1.49,0.2,2.85-0.37,4.03-0.86c1.54-0.64,2.86-0.34,4.13,0.09c1.95,0.67,2.08,3.26,0.11,4.7c-1.23,0.9-0.76,1.94-0.89,2.96
		c-0.08,0.58,0.45,0.62,0.8,0.54c0.74-0.16,1.6-0.22,1.62-1.32c0.03-1.5,0.14-3,0.11-4.5c-0.03-1.37,0.39-1.95,1.9-1.92
		c4.56,0.08,9.12,0.02,13.68-0.06c1.13-0.02,1.54,0.28,1.55,1.48c0.13,16.24,0.14,32.48,0.01,48.73c-0.01,1.11-0.26,1.58-1.48,1.55
		c-3.17-0.08-6.34-0.07-9.51,0.01c-1.13,0.03-1.35-0.39-1.4-1.43c-0.43-8.34-0.46-16.68-0.37-25.02
		C56.83,122.06,56.79,120.51,56.42,118.6z M33.59,144.27c0.06,1.28,0.21,2.55,0.26,3.82c0.02,0.43,0.26,1.07-0.61,1.05
		c-0.67-0.01-0.84-0.4-0.88-0.96c-0.15-2.11-0.39-4.21-0.45-6.32c-0.37-12.22-1.9-24.4-1.16-36.65c0.01-0.08-0.08-0.18-0.23-0.48
		c-0.83,1.46-0.83,2.87-0.88,4.23c-0.53,12.89-0.92,25.78,0.11,38.66c0.03,0.43,0.34,1.05-0.52,1.12c-0.81,0.06-0.98-0.36-1.06-1.1
		c-0.76-6.91-1.16-13.84-1.28-20.79c-0.14-8.62,0.11-17.23,0.43-25.85c0.05-1.31,0.42-1.98,1.81-1.77c0.11,0.02,0.22-0.01,0.33-0.02
		c1.48-0.06,3.48-0.96,4.28,0.03c0.72,0.88,0.16,2.86,0.06,4.34C32.9,117.15,32.99,130.71,33.59,144.27z M23.53,101.04
		c0.08-0.92,0.34-1.53,1.37-1.42c1.16,0.12,0.6,1.05,0.57,1.55c-0.66,10.15-1.03,20.31-0.96,30.48c0.03,5.06,0.4,10.1,0.89,15.13
		c0.05,0.49,0.53,1.33-0.4,1.45c-0.78,0.11-1.08-0.47-1.16-1.27c-0.79-8.24-1.21-16.51-1.29-24.79
		C22.65,115.13,22.96,108.08,23.53,101.04z M36.56,181.31c-0.93-0.14-1.88-0.19-2.82-0.24c-2.7-0.15-4.2-1.22-4.78-3.8
		c-1-4.49-1.87-9.01-2.74-13.53c-0.08-0.42-0.53-1.22,0.39-1.33c0.9-0.11,0.81,0.69,0.91,1.28c0.66,3.71,1.31,7.43,2,11.14
		c0.12,0.65,0.38,1.27,0.62,1.89c0.2,0.51,0.42,1.17,1.13,0.96c0.64-0.18,0.68-0.84,0.6-1.4c-0.39-2.8-0.81-5.6-1.21-8.41
		c-0.19-1.37-0.37-2.75-0.53-4.13c-0.04-0.39-0.33-0.95,0.42-1.01c0.61-0.05,0.89,0.26,0.95,0.88c0.32,2.98,0.68,5.96,1.01,8.94
		c0.28,2.51,0.81,4.9,2.94,7.1c0.48-2.82-0.14-5.21-0.39-7.62c-0.27-2.65-0.68-5.28-1.03-7.93c-0.06-0.42-0.33-0.92,0.38-1.04
		c0.71-0.11,0.8,0.39,0.88,0.92c0.27,1.98,0.54,3.96,0.84,5.93c0.52,3.4,1.01,6.81,1.61,10.19
		C37.98,181.31,37.56,181.46,36.56,181.31z M51.35,182.33c-2.82-0.22-5.65-0.4-8.48-0.58c-0.54-0.03-0.91-0.12-1.05-0.78
		c-1.19-5.53-2.05-11.12-2.93-16.71c-0.08-0.48-0.03-0.9,0.64-0.86c0.69,0.03,1.26,0.05,1.38,1.01c0.38,2.97,0.86,5.93,1.3,8.89
		c0.28,1.86,0.5,3.74,1.21,5.5c0.16,0.39,0.28,0.95,0.85,0.88c0.68-0.09,0.65-0.71,0.59-1.18c-0.48-3.4-1-6.8-1.5-10.2
		c-0.18-1.21-0.36-2.41-0.51-3.62c-0.04-0.38-0.33-0.93,0.45-0.98c0.65-0.05,0.83,0.25,0.92,0.86c0.44,3.24,0.83,6.49,1.69,9.66
		c0.23,0.84,0.42,1.72,1.25,2.53c0.56-1.03,0.4-1.93,0.3-2.78c-0.34-2.98-0.7-5.95-1.15-8.92c-0.16-1.06,0.19-1.21,1.13-1.16
		c3.32,0.16,3.35,0.12,3.67,3.42c0.46,4.64,0.84,9.29,1.32,13.93C52.53,182.23,52.19,182.4,51.35,182.33z M69.12,165.49
		c-0.21,5.33-0.41,10.66-0.58,15.99c-0.03,0.97-0.34,1.39-1.38,1.35c-1.66-0.07-3.33-0.02-4.79-0.02c-2.04-0.1-3.87-0.24-5.7-0.27
		c-0.9-0.02-1.29-0.39-1.38-1.26c-0.55-5.36-1.11-10.71-1.67-16.07c-0.07-0.63-0.01-1.17,0.81-1.07c0.85,0.11,1.97-0.31,2.08,1.22
		c0.2,2.88,0.49,5.75,0.74,8.63c0.13,1.5,0.41,2.97,1.12,4.31c0.18,0.33,0.39,0.78,0.84,0.7c0.51-0.1,0.36-0.63,0.37-0.98
		c0.15-3.13-0.6-6.18-0.8-9.28c-0.08-1.16-0.19-2.33-0.38-3.47c-0.14-0.83,0.24-0.94,0.9-0.93c2.95,0.03,5.89,0.05,8.84,0.03
		C68.98,164.36,69.15,164.74,69.12,165.49z M86.22,165.51c-0.59,5.19-1.12,10.38-1.64,15.58c-0.11,1.11-0.46,1.66-1.72,1.65
		c-3.56-0.03-7.12,0.04-10.68,0.14c-1.01,0.03-1.34-0.28-1.31-1.32c0.08-2.61,0.02-5.22,0.02-7.83c0.17,0,0.34,0,0.51,0
		c0-2.72,0.02-5.45-0.01-8.17c-0.01-0.93,0.35-1.2,1.28-1.21c4.06-0.05,8.12-0.14,12.18-0.32
		C86.09,163.97,86.35,164.36,86.22,165.51z M95.76,181.77c-2.38,0.19-4.76,0.43-6.96,0.64c-0.97-0.06-2.02,0.43-1.85-1.18
		c0.53-5.19,1.03-10.39,1.42-15.6c0.11-1.41,0.63-1.85,2.01-1.88c3.17-0.07,6.34-0.2,9.49-0.53c1.47-0.15,1.61,0.35,1.41,1.51
		c-0.83,4.81-1.61,9.63-2.48,14.43C98.35,181.62,98.27,181.58,95.76,181.77z M110.23,163.47c-1.11,4.7-2.22,9.39-3.65,14
		c-0.76,2.45-2.3,3.52-4.89,3.62c-0.99,0.25-1.14-0.22-0.96-1.17c0.94-5.02,1.76-10.06,2.3-15.14c0.14-1.3,0.61-1.96,2-1.98
		c1.44-0.02,2.88-0.18,4.32-0.35C110.23,162.33,110.41,162.68,110.23,163.47z M111.32,160.07c-5.94,0.91-11.93,1.32-17.92,1.62
		c-12.73,0.64-25.46,0.6-38.2,0.32c-9.95-0.22-19.9-0.56-29.77-1.93c-0.6-0.08-1.24-0.02-1.38-0.87c-0.52-3.33-0.97-6.67-1.21-10.07
		c14.66,2.36,29.28,2.28,43.89,2.2c15.3-0.09,30.57-0.77,45.84-1.72c1.5-0.09,1.64,0.41,1.41,1.62c-0.48,2.56-0.93,5.13-1.32,7.71
		C112.54,159.82,112.06,159.96,111.32,160.07z M131.66,116.39c-0.37,15.33-5.54,28.79-15.43,40.47c-0.25,0.29-0.52,0.57-0.79,0.84
		c2.05-10.88,3.25-21.89,3.41-33.07c0.21-15.06-1.45-29.93-5.04-44.57c-1.29-5.28-2.82-10.49-4.53-15.65
		c-0.75-2.25-1.98-3.9-4.61-4.17c-11.73-1.18-23.49-1.88-35.54-1.73c-12.66-0.13-25.52,0.73-38.38,1.77
		c-2.11,0.17-3.52,1.23-4.2,3.23c-0.27,0.79-0.49,1.59-0.69,2.4c-3.6,14.07-5.85,28.35-6.74,42.86
		c-0.72,11.85-0.56,23.68,0.49,35.49c0.49,5.51,1.16,10.99,2,16.45c-0.13-0.42-0.28-0.84-0.49-1.23c-0.52-0.99-1.51-1.73-2.25-2.61
		C8.97,145.18,3.8,131.72,3.43,116.39c-0.37-15.31,4.2-29.3,11.26-42.62c3.15-5.94,6.69-11.57,10.49-17.02
		c0.38-0.17,0.73-0.37,0.96-0.66C39.71,39.51,53.19,22.87,66.68,6.24c0.31-0.38,0.48-0.89,0.87-1.66c0.39,0.77,0.56,1.27,0.87,1.66
		c13.49,16.64,26.97,33.28,40.53,49.86c0.24,0.29,0.58,0.49,0.96,0.66c3.8,5.45,7.34,11.09,10.49,17.02
		C127.46,87.09,132.03,101.08,131.66,116.39z"/>
	
		<linearGradient id="SVGID_00000139989595938032680080000005790091000559758727_" gradientUnits="userSpaceOnUse" x1="51.3647" y1="75.4031" x2="54.2155" y2="75.4031">
		<stop  offset="0" style="stop-color:#E34E26"/>
		<stop  offset="1" style="stop-color:#F0662A"/>
	</linearGradient>
	<path style="fill:url(#SVGID_00000139989595938032680080000005790091000559758727_);" d="M52.8,77.92
		c0.35,0.15,0.81,0.42,1.15-0.15c0.52-0.88,0.25-4.04-0.55-5.08c-0.19,0.41-0.28,0.9-0.46,0.94c-1.8,0.38-1.35,1.88-1.55,3.03
		C51.21,77.73,52.21,77.66,52.8,77.92z"/>
	
		<linearGradient id="SVGID_00000111168321485865531130000018158044906441593729_" gradientUnits="userSpaceOnUse" x1="44.8271" y1="85.5577" x2="51.5139" y2="85.5577">
		<stop  offset="0" style="stop-color:#E34E26"/>
		<stop  offset="1" style="stop-color:#F0662A"/>
	</linearGradient>
	<path style="fill:url(#SVGID_00000111168321485865531130000018158044906441593729_);" d="M45.53,86.25
		c0.83,0.02,1.66,0.01,2.49,0.01c0-0.02,0-0.05,0-0.07c0.94,0,1.88,0,2.83,0c0.27,0,0.65,0.02,0.66-0.32
		c0.01-0.21-0.24-0.55-0.44-0.61c-1.9-0.58-3.82-0.47-5.73-0.01c-0.3,0.07-0.6,0.37-0.51,0.75C44.93,86.36,45.28,86.24,45.53,86.25z
		"/>
	
		<linearGradient id="SVGID_00000123437251979081701890000000326338840440268222_" gradientUnits="userSpaceOnUse" x1="41.5773" y1="80.7697" x2="42.8734" y2="80.7697">
		<stop  offset="0" style="stop-color:#E34E26"/>
		<stop  offset="1" style="stop-color:#F0662A"/>
	</linearGradient>
	<path style="fill:url(#SVGID_00000123437251979081701890000000326338840440268222_);" d="M41.59,81.89
		c0.03,0.36,0.19,0.66,0.59,0.68c0.4,0.02,0.64-0.29,0.63-0.62c-0.01-0.95,0.32-1.97-0.44-2.97C41.82,79.95,41.51,80.86,41.59,81.89
		z"/>
	
		<linearGradient id="SVGID_00000000939361154505390290000007222857036867789730_" gradientUnits="userSpaceOnUse" x1="49.5097" y1="125.7776" x2="51.743" y2="125.7776">
		<stop  offset="0" style="stop-color:#E34E26"/>
		<stop  offset="1" style="stop-color:#F0662A"/>
	</linearGradient>
	<path style="fill:url(#SVGID_00000000939361154505390290000007222857036867789730_);" d="M50.07,128.56c0.69,0.2,0.97-0.1,1.3-0.64
		c0.44-0.72,0.54-3.71,0.01-4.29c-0.37-0.41-0.86-0.8-1.43-0.67c-0.69,0.16-0.35,0.82-0.4,1.26c-0.06,0.49-0.01,0.99-0.01,1.49
		c0,0.55-0.01,1.1,0.01,1.65C49.56,127.82,49.36,128.35,50.07,128.56z"/>
	
		<linearGradient id="SVGID_00000092449740403739188700000005548877164033424542_" gradientUnits="userSpaceOnUse" x1="49.44" y1="132.7523" x2="52.055" y2="132.7523">
		<stop  offset="0" style="stop-color:#E34E26"/>
		<stop  offset="1" style="stop-color:#F0662A"/>
	</linearGradient>
	<path style="fill:url(#SVGID_00000092449740403739188700000005548877164033424542_);" d="M51.98,132.91
		c-0.12-0.92-0.72-1.71-0.72-2.68c0-0.47-0.42-0.42-0.76-0.37c-0.37,0.06-0.99,0.06-0.89,0.51c0.3,1.4-1.13,3.25,1.09,4.17
		c0.48,0.2,0.21,0.72,0.17,1.12C52.19,135.15,52.12,134.04,51.98,132.91z"/>
	
		<linearGradient id="SVGID_00000096763311993717058870000008611893407796494482_" gradientUnits="userSpaceOnUse" x1="64.5746" y1="140.2402" x2="65.8625" y2="140.2402">
		<stop  offset="0" style="stop-color:#E34E26"/>
		<stop  offset="1" style="stop-color:#F0662A"/>
	</linearGradient>
	<path style="fill:url(#SVGID_00000096763311993717058870000008611893407796494482_);" d="M65.35,143.59
		c0.19-0.04,0.43-0.39,0.45-0.62c0.17-2.09-0.02-4.14-0.85-6.1c-0.38,2.05-0.53,4.06-0.17,6.07
		C64.83,143.24,64.91,143.69,65.35,143.59z"/>
	
		<linearGradient id="SVGID_00000153707150684410193270000013687262136904573833_" gradientUnits="userSpaceOnUse" x1="49.6185" y1="140.6782" x2="52.3134" y2="140.6782">
		<stop  offset="0" style="stop-color:#E34E26"/>
		<stop  offset="1" style="stop-color:#F0662A"/>
	</linearGradient>
	<path style="fill:url(#SVGID_00000153707150684410193270000013687262136904573833_);" d="M52.19,140.99
		c0.11-0.64,0.03-1.31,0.03-2.21c-0.8,0.42-1.27,0.72-1.78,0.93c-1.21,0.51-0.77,1.55-0.6,2.31c0.2,0.88,1.13,0.42,1.73,0.44
		C52.82,142.5,52.1,141.51,52.19,140.99z"/>
	
		<linearGradient id="SVGID_00000173851168878749174970000009143116459807084198_" gradientUnits="userSpaceOnUse" x1="49.5707" y1="112.7168" x2="52.1421" y2="112.7168">
		<stop  offset="0" style="stop-color:#E34E26"/>
		<stop  offset="1" style="stop-color:#F0662A"/>
	</linearGradient>
	<path style="fill:url(#SVGID_00000173851168878749174970000009143116459807084198_);" d="M51.49,114.28
		c0.97,0.25,0.42-0.82,0.54-1.04c0.4-1.57-0.31-1.97-1.5-2.11c-1.05-0.12-0.8,0.56-0.91,1.12
		C49.32,113.79,50.62,114.05,51.49,114.28z"/>
	
		<linearGradient id="SVGID_00000062178343924726061690000015408822736073285788_" gradientUnits="userSpaceOnUse" x1="49.4797" y1="120.4236" x2="51.941" y2="120.4236">
		<stop  offset="0" style="stop-color:#E34E26"/>
		<stop  offset="1" style="stop-color:#F0662A"/>
	</linearGradient>
	<path style="fill:url(#SVGID_00000062178343924726061690000015408822736073285788_);" d="M51.93,122.48c0-1.41,0.02-2.4-0.01-3.39
		c-0.01-0.32,0.18-0.8-0.54-0.72c-1.18,0.13-2.24,1.51-1.8,2.56C49.95,121.82,50.99,121.67,51.93,122.48z"/>
	
		<linearGradient id="SVGID_00000154411164765425039410000006496358744481966002_" gradientUnits="userSpaceOnUse" x1="42.1025" y1="128.9753" x2="43.2716" y2="128.9753">
		<stop  offset="0" style="stop-color:#E34E26"/>
		<stop  offset="1" style="stop-color:#F0662A"/>
	</linearGradient>
	<path style="fill:url(#SVGID_00000154411164765425039410000006496358744481966002_);" d="M42.22,131.53
		c0.04,0.35,0.16,0.7,0.52,0.77c0.34,0.07,0.47-0.25,0.48-0.53c0.08-2.07,0.21-4.16-0.75-6.13C42.1,127.61,42,129.56,42.22,131.53z"
		/>
	
		<linearGradient id="SVGID_00000002358450694907665450000000271866648028717208_" gradientUnits="userSpaceOnUse" x1="49.7595" y1="108.5809" x2="52.2646" y2="108.5809">
		<stop  offset="0" style="stop-color:#E34E26"/>
		<stop  offset="1" style="stop-color:#F0662A"/>
	</linearGradient>
	<path style="fill:url(#SVGID_00000002358450694907665450000000271866648028717208_);" d="M51.39,109.96
		c1.21,0.2,0.78-0.8,0.79-1.34c0.01-0.58,0.47-1.61-0.85-1.44c-0.83,0.11-1.72,0.22-1.55,1.39
		C49.58,109.94,50.66,109.84,51.39,109.96z"/>
	
		<linearGradient id="SVGID_00000129197493829765754310000001948083986040760751_" gradientUnits="userSpaceOnUse" x1="49.5226" y1="137.1155" x2="51.7016" y2="137.1155">
		<stop  offset="0" style="stop-color:#E34E26"/>
		<stop  offset="1" style="stop-color:#F0662A"/>
	</linearGradient>
	<path style="fill:url(#SVGID_00000129197493829765754310000001948083986040760751_);" d="M49.83,135.6
		c-0.52,0.79-0.23,1.7-0.15,2.55c0.03,0.29,0.51,0.53,0.79,0.78c0.01,0.01,0.14-0.14,0.22-0.2c1.3-0.93,1.35-1.95,0.13-3.03
		l0.05,0.05c0,0,0,0,0,0l0,0c0,0,0,0,0,0c0-0.02,0.01-0.05,0.01-0.07c-0.02,0.01-0.03,0.02-0.05,0.02
		C50.53,135.32,50.16,135.09,49.83,135.6z"/>
	
		<linearGradient id="SVGID_00000173874798894239863710000003847158162265144754_" gradientUnits="userSpaceOnUse" x1="49.5541" y1="116.3645" x2="51.7312" y2="116.3645">
		<stop  offset="0" style="stop-color:#E34E26"/>
		<stop  offset="1" style="stop-color:#F0662A"/>
	</linearGradient>
	<path style="fill:url(#SVGID_00000173874798894239863710000003847158162265144754_);" d="M50.38,117.72
		c0.81-0.08,1.32-0.52,1.35-1.37c0.03-0.89-0.53-1.27-1.33-1.34c-1.16-0.1-0.72,0.8-0.84,1.36
		C49.67,116.92,49.21,117.83,50.38,117.72z"/>
	
		<linearGradient id="SVGID_00000157284110378472775850000003627448859799426227_" gradientUnits="userSpaceOnUse" x1="49.9588" y1="99.956" x2="51.7142" y2="99.956">
		<stop  offset="0" style="stop-color:#E34E26"/>
		<stop  offset="1" style="stop-color:#F0662A"/>
	</linearGradient>
	<path style="fill:url(#SVGID_00000157284110378472775850000003627448859799426227_);" d="M50.47,101.58
		c0.74,0.03,1.2-0.45,1.24-1.26c0.05-0.9-0.53-1.4-1.18-1.99c-0.35,0.75-0.56,1.38-0.52,2.06
		C50.04,100.83,49.69,101.54,50.47,101.58z"/>
	
		<linearGradient id="SVGID_00000042001417241320569130000003534922433013041046_" gradientUnits="userSpaceOnUse" x1="74.2812" y1="105.6793" x2="75.5872" y2="105.6793">
		<stop  offset="0" style="stop-color:#E34E26"/>
		<stop  offset="1" style="stop-color:#F0662A"/>
	</linearGradient>
	<path style="fill:url(#SVGID_00000042001417241320569130000003534922433013041046_);" d="M75.05,108.69
		c0.32,0.01,0.48-0.26,0.5-0.55c0.11-1.75,0.02-3.47-0.9-5.48c-0.42,2.04-0.48,3.67-0.16,5.31
		C74.55,108.29,74.62,108.68,75.05,108.69z"/>
	
		<linearGradient id="SVGID_00000140005582010862718310000012074001431844985508_" gradientUnits="userSpaceOnUse" x1="74.3665" y1="112.005" x2="75.6078" y2="112.005">
		<stop  offset="0" style="stop-color:#E34E26"/>
		<stop  offset="1" style="stop-color:#F0662A"/>
	</linearGradient>
	<path style="fill:url(#SVGID_00000140005582010862718310000012074001431844985508_);" d="M74.6,113.25c0.15,0.23,0.6,0.23,0.73,0
		c0.46-0.82,0.4-1.61-0.52-2.66C74.69,111.68,74.02,112.37,74.6,113.25z"/>
	
		<linearGradient id="SVGID_00000126310712523138521660000006119078345802397119_" gradientUnits="userSpaceOnUse" x1="66.4262" y1="25.4609" x2="80.4779" y2="25.4609">
		<stop  offset="0" style="stop-color:#E34E26"/>
		<stop  offset="1" style="stop-color:#F0662A"/>
	</linearGradient>
	<path style="fill:url(#SVGID_00000126310712523138521660000006119078345802397119_);" d="M79.46,32.31
		c0.12,0.12,0.27,0.17,0.42,0.17c0.15,0,0.3-0.06,0.42-0.17c0.23-0.23,0.23-0.61,0-0.84L67.44,18.61c-0.23-0.23-0.61-0.23-0.84,0
		s-0.23,0.61,0,0.84L79.46,32.31z"/>
	
		<linearGradient id="SVGID_00000067206501475857454550000011005054213294761363_" gradientUnits="userSpaceOnUse" x1="55.7631" y1="36.1243" x2="69.8148" y2="36.1243">
		<stop  offset="0" style="stop-color:#E34E26"/>
		<stop  offset="1" style="stop-color:#F0662A"/>
	</linearGradient>
	<path style="fill:url(#SVGID_00000067206501475857454550000011005054213294761363_);" d="M56.78,29.27c-0.23-0.23-0.61-0.23-0.84,0
		s-0.23,0.61,0,0.84L68.8,42.98c0.12,0.12,0.27,0.17,0.42,0.17c0.15,0,0.3-0.06,0.42-0.17c0.23-0.23,0.23-0.61,0-0.84L56.78,29.27z"
		/>
	
		<linearGradient id="SVGID_00000047779899439058122100000003912905277522974626_" gradientUnits="userSpaceOnUse" x1="58.9779" y1="30.2034" x2="67.618" y2="30.2034">
		<stop  offset="0" style="stop-color:#E34E26"/>
		<stop  offset="1" style="stop-color:#F0662A"/>
	</linearGradient>
	<path style="fill:url(#SVGID_00000047779899439058122100000003912905277522974626_);" d="M66.6,34.35
		c0.12,0.12,0.27,0.17,0.42,0.17s0.3-0.06,0.42-0.17c0.23-0.23,0.23-0.61,0-0.84L60,26.06c-0.23-0.23-0.61-0.23-0.84,0
		c-0.23,0.23-0.23,0.61,0,0.84L66.6,34.35z"/>
	
		<linearGradient id="SVGID_00000034065448371670154000000013867003009816881544_" gradientUnits="userSpaceOnUse" x1="52.9529" y1="37.0438" x2="61.593" y2="37.0438">
		<stop  offset="0" style="stop-color:#E34E26"/>
		<stop  offset="1" style="stop-color:#F0662A"/>
	</linearGradient>
	<path style="fill:url(#SVGID_00000034065448371670154000000013867003009816881544_);" d="M53.97,32.9c-0.23-0.23-0.61-0.23-0.84,0
		s-0.23,0.61,0,0.84l7.45,7.45c0.12,0.12,0.27,0.17,0.42,0.17s0.3-0.06,0.42-0.17c0.23-0.23,0.23-0.61,0-0.84L53.97,32.9z"/>
	
		<linearGradient id="SVGID_00000101104422232052675740000009910015803992223375_" gradientUnits="userSpaceOnUse" x1="62.7434" y1="33.9275" x2="86.3629" y2="33.9275">
		<stop  offset="0" style="stop-color:#E34E26"/>
		<stop  offset="1" style="stop-color:#F0662A"/>
	</linearGradient>
	<path style="fill:url(#SVGID_00000101104422232052675740000009910015803992223375_);" d="M63.76,22.29c-0.23-0.23-0.61-0.23-0.84,0
		s-0.23,0.61,0,0.84l22.43,22.43c0.12,0.12,0.27,0.17,0.42,0.17s0.3-0.06,0.42-0.17c0.23-0.23,0.23-0.61,0-0.84L63.76,22.29z"/>
</g>
<g>
	<path class="st0" d="M190.51,18.43c-0.3-0.89-0.3-1.82-0.74-2.76c0-0.15-0.15-0.59-0.64-0.59c-0.3,0-0.74-0.15-0.89,0
		c-0.44,0.74-1.08,1.04-1.82,1.33c-1.53-0.44-3.06,0-4.58,0c-0.89-0.15-1.97-0.05-2.91-0.05c-2.41,0-4.83,0.3-7.29-0.05
		c-0.3-0.15-0.74-0.3-0.74-0.74c-0.3,0-0.59-0.15-0.94,0c0,0,0,0.3,0,0.44c0,0.15-0.3,0.44-0.3,0.59c-0.15,1.08-0.3,2.27-0.64,3.35
		c0,0.74-0.3,1.82,0.59,2.12c0.64,0.15,0.79-0.59,1.23-0.89c0,0,0-0.15,0-0.3l0.3-0.15c0.64-1.53,2.17-2.12,3.55-2.41
		c0.89-0.3,1.87-0.54,2.71,0c0.94,0.64,0.59,1.82,0.89,2.76c0.15,1.38-0.3,2.56,0,3.94c0,0.59-0.15,1.08-0.34,1.68
		c-0.15,1.08,0.3,1.97,0,3.06c0,0.3,0,0.59,0.15,0.89c0.15,1.23,0.15,2.46-0.34,3.65c-0.3,0.64-1.23,0.79-1.82,1.08
		c-0.44,0.3-0.15,0.89,0.3,1.03c0.94,0.2,1.68-0.15,2.61-0.25c1.82-0.3,3.5,0.15,5.32,0.15c0.74,0,1.04-0.89,0.44-1.48
		c-0.74-0.49-1.53-0.34-2.27-0.79c-0.3-0.3-0.44-0.79-0.44-1.08c0-1.53-0.3-3.06,0.2-4.53c-0.3-3.06-0.15-6.11,0.05-9.17
		c0-0.3,0.3-0.59,0.3-0.89c0.15-0.15,0.64-0.44,0.94-0.44c0.15,0,0.44,0.3,0.59,0.3c1.23-0.15,2.56,0.35,3.5,1.08
		c0.59,0.64,1.18,1.38,1.82,2.17c0.15,0.3,0.74,0.59,1.18,0.15c0.3-0.15,0.49-0.44,0.34-0.74C190.46,20.1,190.65,19.21,190.51,18.43
		z"/>
	<path class="st0" d="M217.61,17.49c0.59-0.3,1.04-0.89,0.74-1.53c-0.3-0.44-0.89-0.74-1.38-0.59c-0.3,0.15-0.74,0.15-1.04,0.15
		c-1.53-0.05-3.06,0.59-4.58,0.25c-1.04-0.3-2.12-0.79-3.2-0.3c0,0.15-0.15,0.3-0.3,0.44c-0.15,0.3,0,0.89,0.15,1.04
		c0.94,0.64,2.27,0.35,3.06,1.28c0.74,1.04-0.05,2.56,0.59,3.8c-0.34,0.74-0.2,1.38-0.2,2.12c0,0.44-0.15,0.74-0.74,0.89
		c-1.08,0.15-2.02,0.3-3.06,0.15c-1.53-0.3-3.06,0.3-4.58-0.05c-0.44-0.15-1.38,0-1.33-0.74c0-1.08-0.44-2.17-0.3-3.2
		c0.15-0.3,0.15-0.59,0.15-0.94c-0.3-0.59,0-1.13,0.15-1.82c0.35-1.04,2.17-0.59,2.91-1.33c0.3-0.3,0.34-1.08,0-1.08
		c-1.97-0.89-3.94-0.15-5.91-0.34c-0.15,0-0.3-0.15-0.44-0.3c-0.59-0.15-1.08,0.3-1.68,0.3c-0.44-0.15-1.08-0.44-1.53-0.3
		c-0.74,0.3-0.94,1.18-0.44,1.82c0.89,0.74,2.71,0.3,2.86,1.68c0.59,3.35,0.39,6.7,0.39,10.05c0,0.15-0.15,0.44-0.15,0.74
		c0.3,1.38,0.1,2.61,0.1,3.79c0,0.15-0.15,0.49-0.3,0.64c-0.79,0.59-1.68,0.3-2.46,0.89c-0.3,0.3-0.44,0.89,0,1.23
		c0.79,0.15,1.68-0.15,2.46,0.15c0.3,0,0.74,0,1.04,0c1.68,0,3.35-0.44,5.03-0.1c0.3,0.15,0.74,0.59,1.08,0.15
		c0.15-0.3,0.3-0.59,0.3-0.89c-0.44-0.94-1.68-1.08-2.56-1.08c-0.49-0.05-0.64-0.64-0.79-0.94c0-1.68-0.1-3.35,0.2-5.17
		c0.15-0.44,0.3-0.89,0.79-0.89c2.71,0,5.32-0.44,8.03,0.34c0.3,0,0.59,0.44,0.59,0.94c-0.15,1.63,0.3,3.3-0.15,4.98
		c0,0.15-0.34,0.3-0.49,0.64c-0.44,0.44-1.18-0.05-1.82,0.1c-0.59,0.34-0.59,1.38-0.15,1.82c3.06,0.2,5.91-0.1,8.97,0.1
		c0.3,0,0.59-0.3,0.74-0.59c0.05-0.49-0.3-1.08-0.89-1.23c-0.89,0-1.68-0.35-2.42-0.64c0,0-0.15-0.15-0.15-0.3c0-0.3,0-0.79,0-1.08
		c0.35-3.2,0.2-6.36,0.2-9.56c0-0.15-0.3-0.49-0.3-0.64c0.2-1.33-0.1-3.01,0.79-4.24C215.94,17.49,216.82,17.64,217.61,17.49z"/>
	<path class="st0" d="M241.32,31.14c0-0.3-0.15-0.59-0.3-0.89c0,0-0.3,0-0.44,0c-0.94,0.74-1.38,1.82-1.87,2.86
		c-0.74,1.38-2.41,1.53-3.79,1.53c-0.15,0-0.44,0.15-0.59,0.3c-0.49,0.15-0.94-0.34-1.38-0.2c-0.3,0.15-0.79-0.15-1.08-0.15
		c-0.3,0.15-0.59,0.44-1.04,0.3c-0.49-0.15-0.94-0.15-1.23-0.44c-1.04-0.94,0-2.46-0.15-3.65c-0.15-1.08-0.1-2.02-0.1-3.06
		c0-0.44,0.3-1.08,0.89-1.08c1.23,0.34,2.46,0.05,3.5,0.64c0.49,0.15,0.79,0.94,0.94,1.53c0,0.44,0.15,1.08,0.44,1.38
		c0.44,0.15,0.89,0,1.04-0.44c0.2-1.97,0.34-3.79,0.49-5.62c0-0.15-0.15-0.44-0.15-0.79c0.2-0.3,0.34-0.59,0.49-0.89
		c0-0.44-0.3-0.79-0.59-0.94c-0.49-0.15-0.79,0.15-1.08,0.3c-0.44,0.49-0.44,1.08-0.49,1.68c0,0.44-0.59,0.79-0.89,1.23
		c-0.79,0.59-1.68,0.15-2.46,0.59c-0.74,0.59-2.12,0.3-2.27-0.64c0-0.89,0-1.82,0.2-2.56c0.44-1.68-0.59-4.58,1.68-4.73
		c1.68-0.15,3.35-0.44,4.88,0.49c1.04,0.64,1.68,2.02,2.12,3.35c0.15,0.49,0.44,0.79,1.04,0.64c0.3-0.15,0.3-0.59,0.49-0.94
		c0-0.3,0-0.59-0.15-0.89c-0.3-1.38,0.74-2.76,0.15-4.09c-0.15-0.34-0.74-0.34-1.04-0.49c-2.32-0.15-4.73,0-7-0.05
		c-0.3,0-0.79,0-1.08,0c-0.3-0.15-0.59-0.15-0.89-0.15c-2.46,0.3-4.88-0.05-7.34,0.1c-0.3,0-0.59,0.3-0.74,0.59
		c-0.3,0.74,0.44,1.23,1.04,1.38c1.08,0.15,2.02-0.15,2.91,0.34c0.3,0.15,0.44,0.59,0.59,0.89c0,0.44-0.3,0.79-0.3,1.23
		c0,1.38-0.05,2.86,0.1,4.24c0.3,3.06-0.34,6.11-0.05,9.12c0,0.64-0.64,1.23-1.23,1.38c-1.23,0.15-2.56-0.3-3.2,0.89
		c-0.15,0.44,0.15,0.94,0.44,0.94c2.46,0.44,4.88,0,7.29,0.05c0.79,0,1.68-0.15,2.46-0.15c0.3,0.15,0.59,0.15,0.89,0.15
		c0.34-0.15,0.64-0.3,1.08-0.3c1.38,0.34,2.56,0.34,3.94,0.49c0.15,0,0.64-0.15,0.79-0.3c0.89,0,1.97,0.3,2.71-0.44
		c0-0.15,0-0.3,0-0.44l0.34-0.15C240.83,33.9,241.47,32.52,241.32,31.14z"/>
</g>
</svg>
